<?xml version="1.0" encoding="UTF-8"?> <svg xmlns="http://www.w3.org/2000/svg" width="188" height="26" viewBox="0 0 188 26" fill="none"><g clip-path="url(#clip0_620_505)"><mask id="mask0_620_505" style="mask-type:luminance" maskUnits="userSpaceOnUse" x="0" y="0" width="188" height="26"><path d="M188 0.612793H0V25.7684H188V0.612793Z" fill="white"></path></mask><g mask="url(#mask0_620_505)"><path d="M0 3.06301C2.54365 0.519361 6.66733 0.519361 9.21098 3.06301C11.7546 5.60666 11.7546 9.73034 9.21098 12.274L0 3.06301Z" fill="#CE132E"></path><path d="M13.0264 3.06301C15.57 0.519361 19.6937 0.519361 22.2373 3.06301C24.781 5.60666 24.781 9.73034 22.2373 12.274L13.0264 3.06301Z" fill="#CE132E"></path><path d="M0 16.0894C2.54365 13.5457 6.66733 13.5457 9.21098 16.0894C11.7546 18.633 11.7546 22.7567 9.21098 25.3004L0 16.0894Z" fill="#CE132E"></path><path d="M13.0264 16.0894C15.57 13.5457 19.6937 13.5457 22.2373 16.0894C24.781 18.633 24.781 22.7567 22.2373 25.3004L13.0264 16.0894Z" fill="#CE132E"></path><path d="M47.67 25.2536L43.64 17.018H40.1249V25.2536H35.0259V1.13184H44.8806C49.8781 1.13184 53.1865 4.51037 53.1865 9.02418C53.1865 12.4378 51.427 15.157 48.501 16.3313L53.2567 25.2575H47.6739L47.67 25.2536ZM40.1249 12.469H43.9482C46.2226 12.469 47.7402 11.2635 47.7402 9.02418C47.7402 6.78483 46.1212 5.57932 43.9482 5.57932H40.1249V12.469Z" fill="#CE132E"></path><path d="M56.6665 15.9841V1.13184H61.7655V15.949C61.7655 18.8438 63.2831 20.8412 66.2091 20.8412C69.1351 20.8412 70.6215 18.8438 70.6215 15.949V1.13184H75.7205V15.9841C75.7205 22.0155 72.3107 25.7725 66.2091 25.7725C60.1075 25.7725 56.6626 22.0155 56.6626 15.9841" fill="#CE132E"></path><path d="M97.3295 18.2233C97.3295 22.464 94.1227 25.7723 88.575 25.7723C84.6464 25.7723 81.5449 24.6019 79.7542 23.6695V18.5354C81.7868 19.776 85.5788 20.9815 88.575 20.9815C90.9197 20.9815 91.8833 19.8423 91.8833 18.5354C91.8833 17.365 91.0914 16.3624 89.4021 16.019L86.0587 15.2973C82.4071 14.5053 79.5786 12.5742 79.5786 8.16572C79.5786 3.75725 82.8206 0.612793 88.7818 0.612793C91.5751 0.612793 94.0564 1.30332 95.8471 2.09529V7.1943C93.5375 6.12534 90.8846 5.36848 88.6101 5.36848C86.3357 5.36848 84.9585 6.40233 84.9585 7.84971C84.9585 8.9889 85.6803 9.81207 87.0613 10.1242L90.8885 10.9513C95.0941 11.8837 97.3335 14.2596 97.3335 18.2233" fill="#CE132E"></path><path d="M118.077 18.2233C118.077 22.464 114.87 25.7723 109.323 25.7723C105.394 25.7723 102.292 24.6019 100.502 23.6695V18.5354C102.534 19.776 106.326 20.9815 109.323 20.9815C111.667 20.9815 112.631 19.8423 112.631 18.5354C112.631 17.365 111.839 16.3624 110.15 16.019L106.806 15.2973C103.155 14.5053 100.326 12.5742 100.326 8.16572C100.326 3.75725 103.568 0.612793 109.529 0.612793C112.319 0.612793 114.8 1.30332 116.595 2.09529V7.1943C114.285 6.12534 111.632 5.36848 109.358 5.36848C107.083 5.36848 105.706 6.40233 105.706 7.84971C105.706 8.9889 106.428 9.81207 107.809 10.1242L111.636 10.9513C115.842 11.8837 118.081 14.2596 118.081 18.2233" fill="#CE132E"></path><path d="M121.693 15.9841V1.13184H126.792V15.949C126.792 18.8438 128.31 20.8412 131.236 20.8412C134.162 20.8412 135.648 18.8438 135.648 15.949V1.13184H140.747V15.9841C140.747 22.0155 137.338 25.7725 131.236 25.7725C125.134 25.7725 121.689 22.0155 121.689 15.9841" fill="#CE132E"></path><path d="M145.406 1.13184H150.505V20.3263H161.67V25.2536H145.406V1.13184Z" fill="#CE132E"></path><path d="M180.728 20.3263H170.319L168.493 25.2536H163.152L172.492 1.13184H178.66L188 25.2536H182.589L180.728 20.3263ZM178.972 15.7071L175.492 6.43761L172.047 15.7071H178.976H178.972Z" fill="#CE132E"></path></g></g><defs><clipPath id="clip0_620_505"><rect width="188" height="25.1556" fill="white" transform="translate(0 0.612793)"></rect></clipPath></defs></svg> 